<svg width="500" height="224" viewBox="0 0 500 224" fill="none" xmlns="http://www.w3.org/2000/svg">
<path d="M68.302 93.16C67.662 93.16 67.122 92.96 66.682 92.56C66.242 92.12 66.022 91.54 66.022 90.82C66.022 90.14 66.242 89.58 66.682 89.14C67.122 88.7 67.662 88.48 68.302 88.48C68.942 88.48 69.482 88.7 69.922 89.14C70.362 89.58 70.582 90.14 70.582 90.82C70.582 91.54 70.362 92.12 69.922 92.56C69.482 92.96 68.942 93.16 68.302 93.16ZM69.622 100.42V133H66.922V100.42H69.622ZM94.2196 99.76C98.0996 99.76 101.26 100.96 103.7 103.36C106.14 105.72 107.36 109.24 107.36 113.92V133H104.72V114.1C104.72 110.22 103.74 107.26 101.78 105.22C99.8196 103.14 97.1596 102.1 93.7996 102.1C90.2796 102.1 87.4596 103.22 85.3396 105.46C83.2596 107.7 82.2196 111.02 82.2196 115.42V133H79.5196V100.42H82.2196V107.32C83.1396 104.88 84.6596 103.02 86.7796 101.74C88.9396 100.42 91.4196 99.76 94.2196 99.76ZM127.942 130.06L139.942 100.42H142.822L129.322 133H126.502L113.002 100.42H115.942L127.942 130.06ZM178.117 114.52C178.117 115.96 178.077 117.04 177.997 117.76H149.857C149.937 120.68 150.577 123.14 151.777 125.14C152.977 127.14 154.557 128.64 156.517 129.64C158.477 130.64 160.617 131.14 162.937 131.14C166.137 131.14 168.817 130.36 170.977 128.8C173.137 127.2 174.497 125.04 175.057 122.32H177.877C177.237 125.64 175.597 128.34 172.957 130.42C170.317 132.46 166.977 133.48 162.937 133.48C159.897 133.48 157.177 132.8 154.777 131.44C152.377 130.08 150.497 128.14 149.137 125.62C147.777 123.06 147.097 120.08 147.097 116.68C147.097 113.28 147.757 110.32 149.077 107.8C150.437 105.28 152.317 103.36 154.717 102.04C157.117 100.68 159.857 100 162.937 100C166.057 100 168.757 100.68 171.037 102.04C173.357 103.36 175.117 105.14 176.317 107.38C177.517 109.58 178.117 111.96 178.117 114.52ZM175.417 115.54C175.537 112.66 175.017 110.22 173.857 108.22C172.737 106.22 171.197 104.74 169.237 103.78C167.277 102.78 165.157 102.28 162.877 102.28C160.597 102.28 158.477 102.78 156.517 103.78C154.597 104.74 153.017 106.22 151.777 108.22C150.577 110.22 149.937 112.66 149.857 115.54H175.417ZM197.137 133.48C193.497 133.48 190.517 132.68 188.197 131.08C185.917 129.48 184.637 127.2 184.357 124.24H187.117C187.317 126.36 188.277 128.04 189.997 129.28C191.757 130.52 194.137 131.14 197.137 131.14C199.617 131.14 201.577 130.52 203.017 129.28C204.497 128 205.237 126.44 205.237 124.6C205.237 123.32 204.837 122.28 204.037 121.48C203.277 120.64 202.317 120 201.157 119.56C199.997 119.12 198.417 118.64 196.417 118.12C194.017 117.48 192.077 116.86 190.597 116.26C189.117 115.62 187.857 114.68 186.817 113.44C185.777 112.2 185.257 110.54 185.257 108.46C185.257 106.94 185.717 105.54 186.637 104.26C187.557 102.94 188.837 101.9 190.477 101.14C192.117 100.38 193.977 100 196.057 100C199.457 100 202.197 100.86 204.277 102.58C206.397 104.26 207.537 106.6 207.697 109.6H204.997C204.877 107.44 204.037 105.68 202.477 104.32C200.917 102.96 198.757 102.28 195.997 102.28C193.677 102.28 191.757 102.88 190.237 104.08C188.717 105.28 187.957 106.74 187.957 108.46C187.957 109.98 188.377 111.22 189.217 112.18C190.097 113.1 191.157 113.82 192.397 114.34C193.677 114.82 195.357 115.34 197.437 115.9C199.717 116.5 201.537 117.1 202.897 117.7C204.297 118.26 205.477 119.1 206.437 120.22C207.397 121.3 207.877 122.76 207.877 124.6C207.877 126.28 207.417 127.8 206.497 129.16C205.577 130.52 204.297 131.58 202.657 132.34C201.017 133.1 199.177 133.48 197.137 133.48ZM220.122 102.76V124.3C220.122 126.7 220.562 128.36 221.442 129.28C222.322 130.16 223.882 130.6 226.122 130.6H229.782V133H225.702C222.862 133 220.762 132.34 219.402 131.02C218.082 129.66 217.422 127.42 217.422 124.3V102.76H212.502V100.42H217.422V92.14H220.122V100.42H229.782V102.76H220.122ZM278.422 99.16C282.582 99.16 285.882 100.42 288.322 102.94C290.802 105.46 292.042 108.96 292.042 113.44V133H281.842V114.82C281.842 112.66 281.262 111 280.102 109.84C278.982 108.64 277.422 108.04 275.422 108.04C273.422 108.04 271.842 108.64 270.682 109.84C269.562 111 269.002 112.66 269.002 114.82V133H258.802V114.82C258.802 112.66 258.222 111 257.062 109.84C255.942 108.64 254.382 108.04 252.382 108.04C250.382 108.04 248.802 108.64 247.642 109.84C246.522 111 245.962 112.66 245.962 114.82V133H235.702V99.52H245.962V103.72C247.002 102.32 248.362 101.22 250.042 100.42C251.722 99.58 253.622 99.16 255.742 99.16C258.262 99.16 260.502 99.7 262.462 100.78C264.462 101.86 266.022 103.4 267.142 105.4C268.302 103.56 269.882 102.06 271.882 100.9C273.882 99.74 276.062 99.16 278.422 99.16ZM304.378 96.04C302.578 96.04 301.098 95.52 299.938 94.48C298.818 93.4 298.258 92.08 298.258 90.52C298.258 88.92 298.818 87.6 299.938 86.56C301.098 85.48 302.578 84.94 304.378 84.94C306.138 84.94 307.578 85.48 308.698 86.56C309.858 87.6 310.438 88.92 310.438 90.52C310.438 92.08 309.858 93.4 308.698 94.48C307.578 95.52 306.138 96.04 304.378 96.04ZM309.478 99.52V133H299.218V99.52H309.478ZM337.313 99.16C341.233 99.16 344.353 100.44 346.673 103C349.033 105.52 350.213 109 350.213 113.44V133H340.013V114.82C340.013 112.58 339.433 110.84 338.273 109.6C337.113 108.36 335.553 107.74 333.593 107.74C331.633 107.74 330.073 108.36 328.913 109.6C327.753 110.84 327.173 112.58 327.173 114.82V133H316.913V99.52H327.173V103.96C328.213 102.48 329.613 101.32 331.373 100.48C333.133 99.6 335.113 99.16 337.313 99.16ZM376.003 124.3V133H370.783C367.063 133 364.163 132.1 362.083 130.3C360.003 128.46 358.963 125.48 358.963 121.36V108.04H354.883V99.52H358.963V91.36H369.223V99.52H375.943V108.04H369.223V121.48C369.223 122.48 369.463 123.2 369.943 123.64C370.423 124.08 371.223 124.3 372.343 124.3H376.003Z" fill="white"/>
<path d="M435 78C434.823 81.9391 432.743 90.3192 431.731 92.3087L429.56 96.5782L434.105 95.0669C434.154 95.0503 434.203 95.0342 434.252 95.0188C433.333 98.3052 430.983 103.396 428.592 106.489L425.08 111.031L430.64 109.597C430.672 109.588 430.704 109.58 430.736 109.572C428.104 113.755 423.118 118.14 421.221 119.809C420.954 120.044 420.729 120.242 420.555 120.399L416.509 124.04L421.798 123.832C413.889 130.567 400.822 135.021 385.936 132.075C384.605 131.812 383.262 131.495 381.904 131.11C381.601 130.041 381.335 128.97 381.104 127.898C380.371 124.507 380 121.109 380 117.75C380 106.188 384.378 96.949 389.185 91.2407L389.034 96.4449L392.617 92.4634C392.774 92.289 392.973 92.0637 393.208 91.7964C394.876 89.8998 399.261 84.9139 403.444 82.282C403.436 82.3139 403.428 82.3462 403.42 82.3784L401.985 87.9375L406.528 84.426C409.615 82.0397 414.72 79.6865 417.999 78.7664C417.983 78.8147 417.967 78.8639 417.951 78.9131L416.44 83.4573L420.709 81.2873C423.149 80.0461 431.616 78.1742 435 78Z" fill="white"/>
</svg>
